[img]http://www.iwannawatch.net/wp-content/uploads/2011/11/A-Very-Harold-And-Kumar-3D-Christmas-2011.jpg[/img]

[b]Encoded/Released By..:[/b] karakurachow (KaRa)
[b]Release Name.........:[/b] A Very Harold and Kumar Christmas 2011 Extended Cut BRRip 720p AVC AC3-KaRa
[b]Genre................:[/b] Comedy 
[b]Subtitle(s)..........:[/b] English
[b]IMDB.................:[/b] [url]http://www.imdb.com/title/tt1268799/[/url]
[b]Plot / Synopsis......:[/b] Six years have elapsed since Guantanemo Bay, leaving Harold and Kumar estranged from one another with very different families, friends and lives. But when Kumar arrives on Harold's doorstep during the holiday season with a mysterious package in hand, he inadvertently burns down Harold's father-in-law's beloved Christmas tree. To fix the problem, Harold and Kumar embark on a mission through New York City to find the perfect Christmas tree, once again stumbling into trouble at every single turn.
[b]Source...............:[/b] A Very Harold And Kumar Christmas 2011 1080p Extended Cut Blu-ray Remux AVC DD 5.1 - KRaLiMaRKo (Thanks!) (Thanks!)

[b]Note[/b]: Make sure is a Real KaRa Release at

[b]General[/b]
Complete name                            : A Very Harold and Kumar Christmas 2011 Extended Cut BRRip 720p AVC AC3-KaRa.mkv
Format                                   : Matroska
Format version                           : Version 2
File size                                : 2.98 GiB
Duration                                 : 1h 36mn
Overall bit rate                         : 4 430 Kbps
Writing application                      : mkvmerge v4.9.1 ('Ich will') built on Jul 11 2011 23:53:15
Writing library                          : libebml v1.2.1 + libmatroska v1.1.1

[b]Video[/b]
ID                                       : 1
Format                                   : AVC
Format/Info                              : Advanced Video Codec
Format profile                           : High@L3.1
Format settings, CABAC                   : Yes
Format settings, ReFrames                : 4 frames
Codec ID                                 : V_MPEG4/ISO/AVC
Duration                                 : 1h 36mn
Bit rate                                 : 3 980 Kbps
Width                                    : 1 280 pixels
Height                                   : 528 pixels
Display aspect ratio                     : 2.40:1
Frame rate                               : 23.976 fps
Color space                              : YUV
Chroma subsampling                       : 4:2:0
Bit depth                                : 8 bits
Scan type                                : Progressive
Bits/(Pixel*Frame)                       : 0.246
Stream size                              : 2.62 GiB (88%)
Writing library                          : x264 core 116 r2074 2641b9e

[b]Audio[/b]
ID                                       : 2
Format                                   : AC-3
Format/Info                              : Audio Coding 3
Mode extension                           : CM (complete main)
Codec ID                                 : A_AC3
Duration                                 : 1h 36mn
Bit rate mode                            : Constant
Bit rate                                 : 448 Kbps
Channel(s)                               : 6 channels
Channel positions                        : Front: L C R, Side: L R, LFE
Sampling rate                            : 48.0 KHz
Bit depth                                : 16 bits
Compression mode                         : Lossy
Stream size                              : 308 MiB (10%)

[b]Screenshots :[/b] 

[img]http://img839.imageshack.us/img839/3844/snapshot20120204032034.png[/img]

[img]http://img845.imageshack.us/img845/4121/snapshot20120204030737.png[/img]

[img]http://img405.imageshack.us/img405/8702/snapshot20120204032236.png[/img]

[img]http://img33.imageshack.us/img33/7461/snapshot20120204032436.png[/img]

[img]http://img268.imageshack.us/img268/6288/thumbs20120204033117.png[/img]


[b]Trailer[/b]


[b]Greets & Thanks To :[/b] HDLiTE,X,LKRG,Bubanee,Noir,CHD,FXG,3Li,AMIABLE,aAF,KingdomRG,UnKnOwN,SaM,HDMaNiAcS,ReleaseLoungeRG,IMAGINE,DDR,CiNEFiLE,blackjesus,TheFalcon007,NPW,CHD,CtrlHD,HDChina,
                     Feel-Free,HDSceneRG,greenbud1969,HiDt,MXMG,ExtraTorrentRG,SamuraiRG,FLAWL3S & To All Other Releasers Past & Present...


[b]Quality Release Brought To You By KaRa 2012©[/b]

